<svg xmlns="http://www.w3.org/2000/svg" width="20" height="20" viewBox="0 0 20 20" fill="none">
  <path d="M18.3334 5.00008V7.01675C18.3334 8.33341 17.5 9.16675 16.1834 9.16675H13.3334V3.34175C13.3334 2.41675 14.0917 1.66675 15.0167 1.66675C15.9251 1.67508 16.7584 2.04175 17.3584 2.64175C17.9584 3.25008 18.3334 4.08341 18.3334 5.00008Z" stroke="#1E1E2F" stroke-width="1.2" stroke-miterlimit="10" stroke-linecap="round" stroke-linejoin="round"/>
  <path d="M1.66663 5.83341V17.5001C1.66663 18.1917 2.44994 18.5834 2.99994 18.1667L4.42496 17.1001C4.75829 16.8501 5.22496 16.8834 5.52496 17.1834L6.90827 18.5751C7.23327 18.9001 7.76664 18.9001 8.09164 18.5751L9.49164 17.1751C9.7833 16.8834 10.25 16.8501 10.575 17.1001L12 18.1667C12.55 18.5751 13.3333 18.1834 13.3333 17.5001V3.33341C13.3333 2.41675 14.0833 1.66675 15 1.66675H5.83329H4.99996C2.49996 1.66675 1.66663 3.15841 1.66663 5.00008V5.83341Z" stroke="#1E1E2F" stroke-width="1.2" stroke-miterlimit="10" stroke-linecap="round" stroke-linejoin="round"/>
  <path d="M5 7.5H10" stroke="#1E1E2F" stroke-width="1.2" stroke-linecap="round" stroke-linejoin="round"/>
  <path d="M5.625 10.8333H9.375" stroke="#1E1E2F" stroke-width="1.2" stroke-linecap="round" stroke-linejoin="round"/>
</svg>