<svg xmlns="http://www.w3.org/2000/svg" width="20" height="20" viewBox="0 0 20 20" fill="none">
  <path d="M7.49996 18.3334H12.5C16.6666 18.3334 18.3333 16.6667 18.3333 12.5001V7.50008C18.3333 3.33341 16.6666 1.66675 12.5 1.66675H7.49996C3.33329 1.66675 1.66663 3.33341 1.66663 7.50008V12.5001C1.66663 16.6667 3.33329 18.3334 7.49996 18.3334Z" stroke="#1E1E2F" stroke-width="1.2" stroke-linecap="round" stroke-linejoin="round"/>
  <path d="M7.58337 9.99999V8.76666C7.58337 7.17499 8.70837 6.53333 10.0834 7.32499L11.15 7.94166L12.2167 8.55833C13.5917 9.34999 13.5917 10.65 12.2167 11.4417L11.15 12.0583L10.0834 12.675C8.70837 13.4667 7.58337 12.8167 7.58337 11.2333V9.99999Z" stroke="#1E1E2F" stroke-width="1.2" stroke-miterlimit="10" stroke-linecap="round" stroke-linejoin="round"/>
</svg>